<?xml version="1.0" encoding="utf-8"?>
<!-- Generator: Adobe Illustrator 21.1.0, SVG Export Plug-In . SVG Version: 6.00 Build 0)  -->
<svg version="1.1" id="Calque_1" xmlns="http://www.w3.org/2000/svg" xmlns:xlink="http://www.w3.org/1999/xlink" x="0px" y="0px"
	 viewBox="0 0 129.4 40.6" style="enable-background:new 0 0 129.4 40.6;" xml:space="preserve">
<g>
	<polygon points="0,0 28.6,0 28.6,9.2 13.3,9.2 13.3,16.7 27.6,16.7 27.6,24.9 14,24.9 14,40.6 0,40.6 	"/>
	<polygon points="39.6,0 51.9,0 64.1,16.7 75.7,0 88.3,0 88.3,40.5 74.7,40.5 74.7,19.1 63.8,34.4 53.2,19.8 53.2,40.4 39.6,40.4
		"/>
	<polygon points="99.4,0 129.3,0 129.3,9.2 113.4,9.2 113.4,15.9 127.7,15.9 127.7,24.3 113.4,24.3 113.4,32 129.4,32 129.4,40.5
		99.4,40.5 	"/>
</g>
<g>
</g>
<g>
</g>
<g>
</g>
<g>
</g>
<g>
</g>
<g>
</g>
</svg>
