<?xml version="1.0" encoding="utf-8"?>
<!-- Generator: Adobe Illustrator 21.1.0, SVG Export Plug-In . SVG Version: 6.00 Build 0)  -->
<svg version="1.1" id="Layer_1" xmlns="http://www.w3.org/2000/svg" xmlns:xlink="http://www.w3.org/1999/xlink" x="0px" y="0px"
	 viewBox="0 0 360 97.2" style="enable-background:new 0 0 360 97.2;" xml:space="preserve">
<style type="text/css">
	.st0{opacity:0.9;fill:#C9DA2B;}
	.st1{fill:#FFFFFF;}
	.st2{opacity:0.9;fill:#70CCDA;}
	.st3{opacity:0.9;fill:#EF4129;}
</style>
<g>
	<g>
		<g>
			<circle class="st0" cx="39.7" cy="61.2" r="30.7"/>
			<ellipse class="st1" cx="39.7" cy="61.2" rx="10.1" ry="10.1"/>
			<path d="M38.3,61.2c0-0.8,0.6-1.4,1.4-1.4c0.8,0,1.4,0.6,1.4,1.4c0,0.8-0.6,1.4-1.4,1.4C38.9,62.6,38.3,62,38.3,61.2z"/>
		</g>
		<g>
			<circle class="st2" cx="54.9" cy="35" r="30.7"/>
			<circle class="st1" cx="54.9" cy="35" r="10.1"/>
			<circle cx="54.9" cy="35" r="1.4"/>
		</g>
		<g>
			<ellipse class="st3" cx="70.3" cy="61.2" rx="30.7" ry="30.7"/>
			<ellipse class="st1" cx="70.3" cy="61.2" rx="10.1" ry="10.1"/>
			<path d="M68.9,61.2c0-0.8,0.6-1.4,1.4-1.4c0.8,0,1.4,0.6,1.4,1.4c0,0.8-0.6,1.4-1.4,1.4C69.5,62.6,68.9,62,68.9,61.2z"/>
		</g>
	</g>
	<g>
		<path d="M137.1,28.4c3.6-0.1,6.7,0.3,9.3,1.2c2.6,0.9,4.7,2.4,6,4.5c0.3,0.5,0.6,1.1,0.9,1.6c0.3,0.5,0.5,1.2,0.7,1.8
			c0.1,0.3,0.1,0.6,0.1,0.9c0,0.3-0.1,0.6-0.1,0.9c-0.2,0.3-0.5,0.5-0.8,0.6c-0.2,0.1-0.5,0.1-0.9,0.1c-0.3,0-0.7,0-1,0h-3.1
			c-0.3,0-0.7,0-1,0c-0.3,0-0.6,0-0.9-0.1c-0.5-0.1-0.8-0.3-1.1-0.6c-0.2-0.3-0.5-0.6-0.6-0.9c-0.2-0.3-0.4-0.6-0.5-1
			c-0.2-0.4-0.4-0.7-0.8-0.9c-0.5-0.4-0.9-0.7-1.4-0.9c-0.5-0.2-1-0.4-1.7-0.5c-0.3-0.1-0.8-0.2-1.5-0.2c-0.6,0-1.1,0-1.5,0.1h-0.5
			c-0.2,0-0.5,0.1-0.7,0.1c-0.2,0-0.4,0.1-0.7,0.1c-0.8,0.2-1.5,0.6-2,1c-0.5,0.4-0.8,1-1,1.8c-0.1,0.3-0.1,0.6,0,0.9
			c0.1,0.3,0.2,0.5,0.3,0.7c0.3,0.6,0.7,1,1.2,1.4c0.4,0.3,1,0.6,1.6,0.9c0.9,0.4,1.9,0.7,3,1c1.1,0.3,2.2,0.5,3.3,0.7
			c1.1,0.2,2.2,0.5,3.3,0.7c1.1,0.3,2.1,0.6,3,1c0.4,0.2,0.8,0.3,1.3,0.5c0.4,0.1,0.8,0.3,1.2,0.5c0.9,0.6,1.7,1.2,2.5,1.9
			c0.7,0.7,1.3,1.5,1.8,2.5c0.1,0.3,0.3,0.7,0.4,1c0.1,0.3,0.2,0.7,0.3,1.1c0,0.3,0.1,0.7,0.1,1.3c0,0.6,0,1.1,0,1.4v0.4
			c-0.1,0.3-0.2,0.6-0.2,0.8c0,0.3-0.1,0.5-0.1,0.7c-0.3,1.4-0.9,2.7-1.6,3.8c-0.8,1.2-1.7,2.1-2.8,2.8c-1.1,0.7-2.3,1.3-3.7,1.9
			c-0.5,0.2-1.1,0.4-1.7,0.5c-0.6,0.1-1.2,0.2-1.8,0.4c-0.4,0.1-0.9,0.2-1.3,0.2c-0.5,0-0.9,0.1-1.3,0.2h-1.3
			c-0.3,0.1-0.8,0.1-1.5,0.1c-0.7,0-1.2,0-1.5-0.1c-0.1,0-0.3,0-0.5,0c-0.2,0-0.3,0-0.5,0c-0.6-0.1-1.1-0.2-1.7-0.2
			c-0.6,0-1.1-0.1-1.6-0.3c-1.9-0.5-3.5-1.1-4.9-1.8c-1.4-0.7-2.6-1.7-3.6-3.1c-0.7-0.9-1.2-2-1.7-3.1c-0.1-0.3-0.2-0.7-0.3-1.1
			c-0.1-0.2-0.2-0.6-0.2-1c0-0.4,0-0.8,0.1-1.1c0.1-0.3,0.4-0.6,0.7-0.7c0.2-0.1,0.5-0.1,0.9-0.1c0.3,0,0.7,0,1.1,0h3.4
			c0.4,0,0.8,0,1.1,0c0.4,0,0.7,0,1,0.1c0.5,0.2,0.9,0.5,1,0.9c0.2,0.4,0.4,0.9,0.6,1.4c0.1,0.2,0.3,0.5,0.5,0.9
			c0.3,0.4,0.5,0.6,0.7,0.7c0.6,0.5,1.1,0.8,1.6,1.1c0.5,0.3,1.2,0.5,2,0.8c0.2,0.1,0.5,0.1,0.7,0.1c0.2,0,0.5,0,0.7,0
			c0.4,0.1,0.8,0.1,1.3,0.1c0.5,0,0.8-0.1,1.2-0.2c0.2,0,0.5-0.1,0.7-0.1c0.2,0,0.4,0,0.7-0.1c0.7-0.2,1.3-0.5,1.8-0.9
			c0.5-0.3,1-0.8,1.3-1.3c0.2-0.4,0.4-1,0.6-1.8c0.1-0.3,0.1-0.6,0-0.9c-0.1-0.3-0.2-0.5-0.3-0.7c-0.3-0.7-0.7-1.2-1.2-1.5
			c-0.5-0.3-1.1-0.6-1.8-0.9c-0.9-0.4-1.9-0.7-2.9-0.9c-1-0.2-2-0.5-3-0.8c-0.4-0.1-0.8-0.2-1.2-0.2c-0.4,0-0.8-0.1-1.2-0.2
			c-1.5-0.4-3-0.8-4.4-1.2c-1.4-0.4-2.6-1-3.8-1.8c-1.3-1-2.3-2.2-2.9-3.9c-0.1-0.3-0.2-0.8-0.3-1.4c-0.1-0.3-0.2-0.7-0.2-1.2
			c0-0.5,0-0.9,0.1-1.3c0.1-0.2,0.1-0.4,0.1-0.6c-0.1-0.2,0-0.4,0.1-0.6c0.1-0.5,0.2-1,0.3-1.5c0.1-0.5,0.3-0.9,0.5-1.3
			c0.6-1.4,1.5-2.5,2.6-3.4c1.1-0.9,2.3-1.6,3.7-2.1c0.5-0.2,1.1-0.4,1.6-0.5c0.6-0.1,1.2-0.2,1.8-0.4c0.3-0.1,0.6-0.2,0.9-0.2
			c0.3,0,0.6-0.1,0.9-0.1c0.4,0,0.8-0.1,1.2-0.1S136.7,28.4,137.1,28.4z"/>
		<path d="M180.7,28.4c0.5,0,1,0,1.4,0.1c0.4,0.1,0.7,0.3,1,0.6c0.3,0.4,0.4,1,0.4,2c0,0.9,0,1.8,0,2.5c0,0.5,0,1.1,0,1.8
			c0,0.7-0.1,1.2-0.2,1.6c-0.2,0.3-0.5,0.6-0.8,0.6c-0.4,0.1-0.8,0.1-1.2,0.1c-0.5,0-0.9,0-1.4-0.1c-0.5-0.1-1,0-1.4,0.1
			c-0.3,0.1-0.7,0.1-1,0.2c-0.3,0-0.6,0.1-0.9,0.2c-0.8,0.2-1.5,0.6-2.3,1c-0.8,0.5-1.4,1-1.8,1.5c-0.2,0.4-0.5,0.8-0.7,1.2
			c-0.3,0.4-0.5,0.8-0.8,1.2c-0.1,0.4-0.3,0.8-0.4,1.2c-0.1,0.4-0.2,0.8-0.3,1.2c-0.1,0.3-0.1,0.7-0.1,1c0,0.4,0,0.7-0.1,1
			c-0.1,0.2-0.1,0.4,0,0.5c0,0.2,0,0.3,0,0.5v1.1c-0.1,0.3-0.1,0.7-0.1,1.1c0,0.4,0.1,0.8,0.1,1.2v4.6v6.1c0,0.6,0,1.2-0.1,1.7
			c-0.1,0.5-0.2,1-0.4,1.3c-0.1,0.1-0.2,0.2-0.5,0.3c-0.2,0.1-0.4,0.1-0.7,0.2h-0.4c-0.2,0.1-0.5,0.1-0.8,0.1c-0.3,0-0.6,0-0.8,0
			h-3.1c-0.3,0-0.6-0.1-0.9-0.1s-0.6,0-1,0c-0.2-0.1-0.5-0.2-0.7-0.2c-0.2-0.1-0.4-0.2-0.5-0.5c-0.2-0.2-0.3-0.6-0.3-1
			c0-0.5,0-0.9,0-1.4v-4.9V38v-5.3c0-0.5,0-0.9,0-1.4c0-0.5,0.1-0.8,0.3-1.1c0.2-0.4,0.6-0.6,1.1-0.7c0.5-0.1,1-0.1,1.7-0.1h3.7
			c0.6,0,1.1,0,1.5,0.1c0.4,0.1,0.8,0.3,1,0.7c0.1,0.2,0.2,0.6,0.3,1c0,0.4,0.1,0.8,0.1,1.3c0,0.4,0.1,0.8,0.2,1.1
			c0.1,0.3,0.3,0.5,0.7,0.5c0.1-0.1,0.2-0.1,0.3-0.1c0.1,0,0.2-0.1,0.3-0.1c0.3-0.2,0.5-0.5,0.7-0.8c0.2-0.3,0.5-0.6,0.8-0.8
			c0.2-0.1,0.4-0.3,0.5-0.5c0.1-0.2,0.3-0.3,0.5-0.5c0.4-0.3,0.9-0.6,1.3-0.9c0.5-0.3,0.9-0.5,1.4-0.8c0.5-0.2,1-0.4,1.5-0.5
			c0.5-0.1,1-0.3,1.5-0.4c0.1,0,0.4-0.1,0.8,0C180.3,28.6,180.6,28.5,180.7,28.4z"/>
		<path d="M201.4,28.4c3.9-0.1,7.1,0.5,9.7,1.7c2.6,1.2,4.7,3,6.2,5.3c0.8,1.1,1.3,2.5,1.7,3.9c0.1,0.2,0.2,0.6,0.2,0.9
			c0.1,0.4,0.1,0.7,0,1c-0.2,0.5-0.5,0.8-1,0.9c-0.5,0.1-1.1,0.1-1.7,0.1h-3.7c-0.4,0-0.9,0-1.3,0c-0.5,0-0.8-0.1-1.1-0.3
			c-0.4-0.2-0.6-0.5-0.8-0.9c-0.1-0.4-0.3-0.8-0.6-1.3c-0.3-0.5-0.6-1-0.9-1.4c-0.3-0.4-0.7-0.8-1.1-1.1c-0.7-0.4-1.4-0.8-2.2-1
			c-0.3-0.1-0.6-0.1-0.9-0.1c-0.3,0-0.5-0.1-0.8-0.1h-0.7c-1,0-1.7,0.1-2.3,0.3c-1.4,0.4-2.5,1.1-3.4,2c-0.9,0.9-1.6,1.9-2.1,3.2
			c-0.2,0.5-0.4,1.1-0.5,1.7c-0.1,0.6-0.2,1.2-0.4,1.9c0,0.2-0.1,0.4-0.1,0.6s0,0.4-0.1,0.6c-0.1,0.5-0.1,1.1-0.1,2
			c0,0.9,0.1,1.5,0.2,2c0,0.4,0,0.6,0.1,0.8c0.1,0.3,0.2,0.7,0.2,1c0,0.3,0.1,0.7,0.2,1c0.4,1.1,0.8,2.1,1.4,3
			c0.5,0.9,1.2,1.7,2,2.3c0.2,0.1,0.5,0.3,0.9,0.5c0.5,0.3,1.1,0.5,1.6,0.6c0.5,0.1,1.2,0.2,2,0.3c0.1,0,0.2,0,0.4,0
			c0.2,0,0.3,0,0.4-0.1h0.6c0.3-0.1,0.7-0.2,1-0.2c0.3-0.1,0.6-0.1,0.9-0.2c1.4-0.6,2.5-1.5,3.3-2.7c0.2-0.2,0.4-0.5,0.5-0.8
			c0.1-0.3,0.3-0.6,0.4-0.8c0.2-0.5,0.4-1,0.5-1.4c0.1-0.4,0.5-0.7,1-1c0.4-0.2,1.1-0.3,2.1-0.3c1,0,1.7,0,2.4,0c0.3,0,0.7,0,1,0
			c0.4,0,0.7,0,0.9,0.1h0.6c0.2,0,0.4,0.1,0.6,0.1c0.2,0,0.3,0.1,0.4,0.2c0.2,0.2,0.4,0.5,0.5,0.8c0.1,0.4,0.1,0.7,0,1.1
			c-0.4,1.6-1,3-1.6,4.2c-2,3.7-5.1,6.2-9.4,7.7c-0.5,0.1-1,0.2-1.5,0.3c-0.5,0.1-1.1,0.2-1.6,0.3c-0.3,0-0.6,0.1-0.9,0.1
			c-0.3,0-0.6,0-0.9,0.1h-0.8c-0.2,0.1-0.6,0.1-1.1,0.1c-0.5,0-0.8-0.1-1.1-0.1c-0.4-0.1-0.7-0.1-1-0.1c-0.3,0-0.6,0-1-0.1
			c-0.2-0.1-0.5-0.1-0.7-0.1c-0.2,0-0.5-0.1-0.7-0.1c-0.5-0.1-1-0.3-1.5-0.4c-0.5-0.1-0.9-0.3-1.4-0.5c-2.2-1-4.1-2.2-5.6-3.7
			c-1.5-1.5-2.8-3.4-3.7-5.6c-0.2-0.4-0.4-0.9-0.6-1.4c-0.1-0.5-0.3-1-0.4-1.5c0-0.2-0.1-0.4-0.1-0.5c0-0.2,0-0.4-0.1-0.6
			c-0.1-0.3-0.1-0.7-0.1-1c0-0.4-0.1-0.7-0.1-1V49c-0.1-0.2-0.1-0.5-0.1-0.8c0-0.3,0-0.6,0.1-0.8c0-0.2,0-0.5,0-0.7
			c-0.1-0.2-0.1-0.4,0-0.6c0.1-0.3,0.1-0.6,0.1-0.9c0-0.3,0-0.6,0.1-0.9c0.2-0.9,0.4-1.7,0.6-2.5c0.1-0.8,0.4-1.6,0.6-2.3
			c1-2.4,2.4-4.5,4-6.1c1.6-1.6,3.6-2.9,6.1-3.9c0.7-0.3,1.4-0.5,2.1-0.6c0.7-0.1,1.5-0.3,2.2-0.5c0.4,0,0.7-0.1,1.1-0.1
			C200.6,28.4,201,28.4,201.4,28.4z"/>
		<path d="M223.2,29.4c0.7,0,1.5,0,2.3,0s1.4,0.1,1.9,0.4c0.3,0.2,0.6,0.5,0.7,0.9c0.1,0.3,0.2,0.7,0.4,1.1c0.3,0.7,0.5,1.3,0.7,2
			c0.2,0.7,0.4,1.3,0.6,2c1,2.6,1.8,5.2,2.6,7.8c0.8,2.6,1.7,5.2,2.6,7.8c0.3,0.9,0.6,1.7,0.9,2.6c0.2,0.9,0.5,1.8,0.9,2.6
			c0.1,0.3,0.2,0.7,0.4,1.1c0.1,0.4,0.4,0.6,0.7,0.7c0.4,0.1,0.7-0.1,0.9-0.5c0.2-0.4,0.4-0.8,0.5-1c0.4-0.9,0.7-1.8,1-2.8
			c0.3-0.9,0.6-1.9,0.9-2.8c0.6-1.8,1.2-3.6,1.8-5.4c0.6-1.8,1.2-3.6,1.8-5.4c0.2-0.8,0.5-1.6,0.7-2.4c0.2-0.8,0.5-1.6,0.9-2.3
			c0.2-0.7,0.5-1.3,0.6-2c0.2-0.7,0.4-1.3,0.6-2c0.1-0.3,0.2-0.7,0.4-1c0.1-0.3,0.3-0.6,0.6-0.9c0.4-0.2,0.8-0.4,1.3-0.4
			c0.5,0,1-0.1,1.7-0.1c0.3,0,0.6,0,0.9,0c0.3,0,0.5,0.1,0.8,0.2c0.4,0.2,0.7,0.5,0.7,0.9c0,0.4-0.1,0.9-0.3,1.3
			c-0.3,0.8-0.6,1.6-0.9,2.5c-0.3,0.9-0.6,1.7-1,2.5c-0.1,0.2-0.2,0.5-0.2,0.7c-0.1,0.2-0.1,0.4-0.2,0.7c-0.4,0.8-0.7,1.6-0.9,2.5
			c-0.2,0.9-0.5,1.7-0.9,2.6c-0.2,0.6-0.5,1.2-0.7,1.9c-0.2,0.6-0.5,1.3-0.8,1.9c-0.8,2-1.5,3.9-2.2,5.9c-0.6,2-1.4,4-2.2,5.9
			c-0.3,0.8-0.5,1.5-0.8,2.3c-0.2,0.8-0.5,1.5-0.9,2.3c-0.2,0.5-0.4,1-0.6,1.5c-0.2,0.5-0.5,0.8-1,1c-0.3,0.1-0.6,0.2-1,0.2
			c-0.4,0-0.7,0-1.1,0c-0.8,0-1.5,0-2.2,0c-0.7,0-1.2-0.2-1.6-0.7c-0.3-0.4-0.6-0.8-0.7-1.4c-0.1-0.6-0.3-1.1-0.6-1.6
			c-0.3-0.7-0.6-1.4-0.8-2.1c-0.3-0.7-0.5-1.4-0.7-2.1c-0.1-0.2-0.2-0.4-0.2-0.6c0-0.2-0.1-0.4-0.2-0.6c-1-2.3-1.8-4.6-2.6-6.9
			c-0.8-2.3-1.7-4.7-2.6-6.9c-0.3-0.8-0.6-1.5-0.8-2.3c-0.3-0.7-0.5-1.5-0.8-2.2c-0.1-0.2-0.2-0.5-0.2-0.8c-0.1-0.3-0.2-0.5-0.2-0.7
			c-0.4-0.8-0.7-1.6-1-2.4c-0.3-0.8-0.6-1.6-0.9-2.4c-0.1-0.3-0.2-0.7-0.4-1.1c-0.1-0.5-0.1-0.9,0.1-1.2c0.2-0.2,0.5-0.4,0.9-0.5
			C223,29.4,223.1,29.4,223.2,29.4z"/>
		<path d="M259.6,22.2c-0.4-0.3-0.6-0.8-0.6-1.5c0-0.7,0-1.5,0-2.2c0-0.4,0-0.8,0-1.2s0.1-0.8,0.2-1.1c0.2-0.4,0.6-0.7,1.1-0.9
			c0.1,0,0.2-0.1,0.3,0c0.1,0,0.2,0,0.3,0c0.8,0,1.6,0,2.3,0.1c0.7,0,1.2,0.3,1.4,0.9c0.1,0.3,0.2,0.6,0.2,1c0,0.4,0,0.8,0,1.2
			c0,0.9,0,1.7,0,2.4c0,0.8-0.3,1.3-1,1.5c-0.2,0.1-0.5,0.1-0.8,0.1s-0.5,0-0.8,0c-0.5,0-1,0-1.5,0C260.4,22.6,260,22.5,259.6,22.2z
			 M264.9,62.8c0,0.5,0,1,0,1.5c0,0.5-0.1,0.9-0.3,1.2c-0.1,0.3-0.4,0.5-0.6,0.5c-0.3,0.1-0.6,0.2-1,0.2h-1.1c-0.6,0-1.2,0-1.6-0.1
			c-0.5-0.1-0.8-0.3-1-0.7c-0.2-0.3-0.3-0.7-0.3-1.1c0-0.5,0-0.9,0-1.3V32.7c0-0.5,0-1,0-1.5c0-0.5,0.1-0.9,0.4-1.2
			c0.1-0.2,0.3-0.4,0.6-0.4c0.2-0.1,0.5-0.1,0.8-0.2c0.1,0,0.2,0,0.3,0c0.1,0,0.2,0,0.3,0c0.6,0,1.3,0,1.9,0c0.6,0,1.1,0.2,1.3,0.6
			c0.2,0.3,0.4,0.7,0.4,1.1c0,0.5,0,0.9,0,1.4V62.8z"/>
		<path d="M290,28.6c3-0.1,5.4,0.3,7.2,1.2c1.8,0.9,3.3,2.3,4.4,4.1c0.3,0.5,0.5,1,0.7,1.5c0.2,0.5,0.3,1.1,0.5,1.7
			c0.2,0.9,0.4,1.9,0.4,2.9c0,1.1,0.1,2.1,0.1,3.2V51v11.2c0,0.8,0,1.6,0,2.4c0,0.8-0.3,1.3-1,1.6c-0.2,0.1-0.5,0.2-0.7,0.2
			c-0.3,0-0.5,0-0.8,0c-0.6,0-1.2,0-1.8,0c-0.6,0-1-0.2-1.2-0.6c-0.2-0.3-0.4-0.8-0.4-1.3c0-0.5,0-1.1,0-1.6v-6.1V45
			c0-1.3,0-2.6-0.1-3.8c-0.1-1.3-0.3-2.3-0.6-3.3c-0.4-0.9-1-1.7-1.7-2.3c-0.8-0.6-1.6-1.1-2.6-1.4c-0.3-0.1-0.6-0.2-0.9-0.2
			c-0.3,0-0.6-0.1-0.9-0.2c-0.2-0.1-0.6-0.1-1.1,0c-0.5,0-0.8,0.1-1,0.1c-0.2,0.1-0.4,0.1-0.5,0.1c-0.1,0-0.3,0-0.5,0
			c-0.6,0.1-1.2,0.3-1.8,0.5c-0.5,0.2-1.1,0.4-1.5,0.7c-0.2,0.1-0.4,0.2-0.5,0.3c-0.1,0.1-0.3,0.2-0.5,0.3c-1.7,1.2-2.9,3-3.7,5.4
			c-0.1,0.4-0.2,0.8-0.3,1.2c-0.1,0.4-0.1,0.8-0.2,1.2c-0.1,0.2-0.1,0.5-0.1,0.7c0,0.2,0,0.4-0.1,0.6v1.5c-0.1,0.1-0.1,0.3,0,0.5
			c0,0.2,0,0.4,0,0.6v2.1v6.9v6.3c0,0.5,0,1.1,0,1.6c0,0.5-0.1,1-0.4,1.3c-0.2,0.4-0.7,0.6-1.3,0.6c-0.6,0-1.2,0-1.8,0
			c-0.4,0-0.7,0-1.1-0.1c-0.3,0-0.6-0.2-0.9-0.4c-0.4-0.2-0.6-0.7-0.6-1.4c0-0.7,0-1.3,0-1.9v-8.4V36.9v-4.4c0-0.4,0-0.9,0-1.3
			c0-0.4,0.1-0.8,0.3-1c0.1-0.3,0.4-0.5,0.7-0.6c0.2,0,0.5-0.1,0.8-0.1c0.4,0,0.7-0.1,1.1-0.1s0.8,0,1.1,0.1
			c0.4,0.1,0.6,0.1,0.8,0.2c0.5,0.3,0.8,0.8,0.7,1.3c0,0.5,0,1.1,0.2,1.7c0.1,0.3,0.3,0.5,0.6,0.7c0.6,0,1-0.2,1.4-0.6
			c0.4-0.5,0.7-0.9,1.1-1.1c0.7-0.5,1.3-0.9,2-1.3c0.7-0.4,1.5-0.7,2.4-1c0.4-0.1,0.8-0.2,1.3-0.3c0.4-0.1,0.9-0.1,1.3-0.2
			c0.2,0,0.5-0.1,0.7-0.1C289.5,28.6,289.7,28.6,290,28.6z"/>
		<path d="M309,29.4c0.6,0,1.3,0,2.1,0c0.8,0,1.4,0.1,1.8,0.3c0.4,0.2,0.7,0.5,0.8,0.9c0.2,0.4,0.3,0.8,0.5,1.2
			c0.2,0.6,0.5,1.2,0.6,1.9c0.2,0.6,0.4,1.2,0.6,1.9c0.2,0.6,0.5,1.2,0.6,1.8c0.2,0.6,0.4,1.2,0.6,1.7c0.2,0.5,0.4,1.1,0.6,1.6
			c0.1,0.6,0.3,1.1,0.6,1.7c0.6,1.4,1.1,2.8,1.6,4.3c0.5,1.5,1,2.9,1.6,4.3c0.1,0.2,0.1,0.4,0.1,0.5c0,0.2,0.1,0.3,0.1,0.5
			c0.3,0.7,0.5,1.3,0.8,2c0.2,0.7,0.5,1.4,0.7,2c0.1,0.3,0.3,0.7,0.4,1c0.1,0.4,0.4,0.6,0.7,0.7c0.4,0.1,0.7,0,0.9-0.4
			c0.2-0.4,0.4-0.7,0.5-1c0.4-0.8,0.7-1.7,0.9-2.6c0.2-0.9,0.5-1.8,0.9-2.6c0.4-1.1,0.8-2.2,1.1-3.3c0.3-1.1,0.7-2.2,1.2-3.3
			c0-0.2,0.1-0.5,0.2-0.9c0.2-0.4,0.4-0.9,0.5-1.3c0.1-0.4,0.3-0.9,0.4-1.2c0.1-0.2,0.2-0.5,0.2-0.6c0-0.2,0.1-0.4,0.2-0.6
			c0.2-0.6,0.4-1.1,0.6-1.7c0.2-0.6,0.4-1.2,0.6-1.8c0.1-0.2,0.2-0.4,0.2-0.6c0-0.2,0.1-0.4,0.2-0.6c0.2-0.4,0.4-0.9,0.5-1.3
			c0.1-0.5,0.3-0.9,0.4-1.3c0.1-0.4,0.3-0.8,0.4-1.2c0.1-0.4,0.3-0.8,0.5-1c0.3-0.4,0.8-0.7,1.4-0.7c0.6,0,1.3-0.1,2-0.1
			c0.4,0,0.8,0,1.1,0c0.4,0,0.7,0.1,0.9,0.3c0.4,0.3,0.5,0.7,0.4,1.4c-0.2,0.6-0.4,1.1-0.5,1.4c0,0.1-0.1,0.2-0.1,0.3
			c0,0.1-0.1,0.2-0.1,0.3c-0.5,1.3-1,2.7-1.6,4c-0.5,1.4-1.1,2.7-1.6,4c-0.1,0.4-0.3,0.7-0.4,1c-0.1,0.3-0.2,0.6-0.4,1
			c-0.4,1-0.7,1.9-1.1,2.9c-0.4,1-0.7,1.9-1.1,2.9c-1.4,3.3-2.7,6.6-3.9,10c-1.2,3.3-2.5,6.7-3.9,9.9c-0.1,0.2-0.2,0.5-0.2,0.8
			c-0.1,0.3-0.2,0.5-0.3,0.8c-0.8,1.8-1.6,3.5-2.4,5.3c-0.9,1.7-2.1,3.1-3.6,4c-0.5,0.3-1,0.5-1.6,0.7c-0.5,0.2-1.1,0.3-1.8,0.5
			c-0.2,0.1-0.5,0.1-0.8,0.1c-0.3-0.1-0.5-0.1-0.8,0c-0.4,0.1-0.8,0.1-1.1,0c-0.2-0.1-0.4-0.1-0.7-0.1c-0.4-0.1-0.8-0.2-1.1-0.3
			c-0.4-0.1-0.6-0.3-0.8-0.6c-0.2-0.3-0.4-0.6-0.4-1c0-0.4,0-0.8,0-1.3c0-0.3,0-0.7,0-1c0-0.3,0.1-0.6,0.2-0.7
			c0.3-0.5,0.9-0.7,1.7-0.4c0.5,0.1,1.1,0.1,1.7,0.1c0.6,0,1.2-0.1,1.6-0.3c0.7-0.2,1.3-0.6,1.8-1.1c0.5-0.5,0.8-1,1.2-1.6
			c0.3-0.6,0.6-1.2,0.9-1.9c0.3-0.7,0.5-1.3,0.8-2c0.2-0.4,0.4-1,0.6-1.6c0.2-0.6,0.2-1.3,0-1.9c-0.2-0.8-0.5-1.5-0.7-2.1
			c-0.3-0.7-0.5-1.3-0.8-2c-0.4-1-0.8-2-1.2-3c-0.4-1-0.8-2-1.1-2.9c-0.3-0.7-0.5-1.3-0.8-1.9c-0.2-0.6-0.5-1.3-0.7-1.9
			c-0.9-2.1-1.7-4.2-2.5-6.3c-0.8-2.1-1.7-4.2-2.5-6.3c-0.5-1.1-0.9-2.2-1.3-3.2c-0.4-1-0.8-2.1-1.2-3.1c-0.1-0.3-0.2-0.7-0.4-1.2
			c-0.2-0.5-0.2-0.9,0.1-1.3c0.1-0.2,0.4-0.4,0.9-0.5c0.1,0,0.2-0.1,0.3,0C308.8,29.4,308.9,29.4,309,29.4z"/>
		<path d="M347.1,15.3c0.6,0,1.3,0,2,0c0.7,0,1.2,0.2,1.5,0.5c0.2,0.3,0.4,0.8,0.4,1.3c0,0.6,0,1.1,0,1.7v6.4v29v8
			c0,0.6,0,1.2,0,1.9c0,0.7-0.1,1.2-0.4,1.6c-0.1,0.2-0.3,0.4-0.6,0.4c-0.3,0-0.6,0.1-1,0.2h-1c-0.5,0-1,0-1.5,0
			c-0.5,0-0.8-0.2-1.1-0.5c-0.2-0.4-0.4-0.9-0.4-1.4c0-0.6,0-1.2,0-1.8v-6.6V26.1v-7c0-0.5,0-1.1,0-1.7c0-0.6,0.1-1.1,0.3-1.4
			c0.2-0.3,0.5-0.5,1.1-0.7c0.1,0,0.2-0.1,0.3,0C346.9,15.3,347,15.3,347.1,15.3z"/>
	</g>
</g>
<g>
</g>
<g>
</g>
<g>
</g>
<g>
</g>
<g>
</g>
<g>
</g>
</svg>
