<?xml version="1.0" encoding="utf-8"?>
<!-- Generator: Adobe Illustrator 21.1.0, SVG Export Plug-In . SVG Version: 6.00 Build 0)  -->
<svg version="1.1" id="Capa_1"
	xmlns="http://www.w3.org/2000/svg"
	xmlns:xlink="http://www.w3.org/1999/xlink" x="0px" y="0px" viewBox="0 0 449.4 449.4" style="enable-background:new 0 0 449.4 449.4;" xml:space="preserve">
	<style type="text/css">
  .envelope{fill: #FFFFFF;}
	.leaf{fill:#000000;}
	</style>
	<g>
		<g>
			<path class="envelope" d="M449.4,192.4h-1.2l-112.5-92l-112.5-92l-112.5,92L0,192.4v248.6h449.4V192.4z M137.3,320.1L36.1,421.3
			c-0.9,0.9-2.2,1.4-3.4,1.4s-2.4-0.5-3.4-1.4c-1.9-1.9-1.9-4.9,0-6.8l101.2-101.2c1.9-1.9,4.9-1.9,6.8,0
			C139.1,315.2,139.1,318.3,137.3,320.1z M414.6,421.3c-0.9,0.9-2.2,1.4-3.4,1.4s-2.4-0.5-3.4-1.4L306.6,320.1
			c-1.9-1.9-1.9-4.9,0-6.8c1.9-1.9,4.9-1.9,6.8,0l101.2,101.2C416.4,416.4,416.4,419.5,414.6,421.3z M332.5,280.9l-109.4,88.5
			l-109.4-88.5L4.3,192.4h218.8h218.8L332.5,280.9z"/>
		</g>
	</g>
	<circle cx="277.4" cy="168.4" r="0"/>
	<circle cx="268" cy="165.1" r="0"/>
	<path class="leaf" d="M224.7,44.9l-10.6,19.9c-1.2,2.2-3.4,2-5.5,0.8l-7.7-4l5.7,30.5c1.2,5.6-2.7,5.6-4.6,3.2l-13.4-15.1l-2.2,7.6
	c-0.3,1-1.4,2.1-3,1.8l-17-3.6l4.5,16.2c1,3.6,1.7,5.1-1,6.1l-6.1,2.8L193,135c1.2,0.9,1.7,2.5,1.3,4l-2.6,8.4
	c10.1-1.2,19.1-2.9,29.2-4c0.9-0.1,2.4,1.4,2.4,2.4l-1.3,30.8h4.9l-0.8-30.7c0-1,1.3-2.6,2.2-2.5c10.1,1.1,19.1,2.8,29.2,4l-2.6-8.4
	c-0.4-1.5,0.2-3.1,1.3-4l29.3-23.8l-6.1-2.8c-2.7-1-1.9-2.4-1-6.1l4.5-16.2l-17,3.6c-1.7,0.3-2.8-0.8-3-1.8l-2.2-7.6l-13.4,15.1
	c-1.9,2.4-5.8,2.4-4.6-3.2l5.7-30.5l-7.7,4c-2.2,1.2-4.3,1.4-5.5-0.8"/>
</svg>
